# xmcd
#
# Track frame offsets: 
#        150
#        12619
#        25397
#        38463
#        51570
#        64189
#        77040
#        90554
#        102048
#        115360
#        126839
#        139478
#        151426
#        163475
#        175308
#        188904
#        201316
#        213886
#        226627
#        236976
#        248622
#        261470
#        273786
#        288605
#        301399
#        315600
#
# Disc length: 4398 seconds
#
# Revision: 1
# Processed by: cddbd v1.5.2PL0 Copyright (c) Steve Scherf et al.
# Submitted via: ExactAudioCopy v0.95b4
#
DISCID=80112c1a
DTITLE=John Kirby Sextet - Complete Columbia and RCA Victor Recordings [
DTITLE=disc 1]
DYEAR=2000
DGENRE=Chamber Jazz
TTITLE0=It Feels So Good
TTITLE1=Effervescent Blues
TTITLE2=The Turf
TTITLE3=Dawn on the Desert
TTITLE4=Anitra's Dance
TTITLE5=Sweet Georgia Brown
TTITLE6=Drink to Me Only with Thine Eyes
TTITLE7=Minute Waltz
TTITLE8=Front and Center
TTITLE9=Royal Garden Blues
TTITLE10=Opus 5
TTITLE11=Fantasy Impromptu
TTITLE12=Blue Skies
TTITLE13=Rose Room (In Sunny Roseland)
TTITLE14=I May Be Wrong (But I Think You're Wonderful)
TTITLE15=Little Brown Jug
TTITLE16=Nocturne
TTITLE17=One Alone
TTITLE18=Humoresque
TTITLE19=Serenade
TTITLE20=Jumpin' in the Pump Room
TTITLE21=Milumbu
TTITLE22=You Go Your Way
TTITLE23=20th Century Closet
TTITLE24=Temptation
TTITLE25=Blues Petite
EXTD=The John Kirby Sextet, "The Biggest Little Band in the Land":\n C
EXTD=harlie Shavers (1917/1971): trumpet\n William "Buster" Bailey (19
EXTD=02/1967): clarinet\n Russell Procope (1908/1981): alto sax\n Bill
EXTD=y Kyle (1914/1966): piano\n John Kirby (1908/1952): bass\n Willia
EXTD=m "O'Neill" Spencer (1909/1944) [CD1:tracks 1-26, 2:1-18), Gor
EXTD=don "Specs" Powell (b.1922) (2:19-23): drums\nRecorded New York U
EXTD=S-NY, 1939-01-09 (1:1-4), 1939-05-19 (1:5-8), 1939-07-28 (1:9-11)
EXTD=, 1939-08-10 (1:12-15), 1939-10-12 (1:16-20), 1940-04-22 (1:21-24
EXTD=), 1940-05-27 (1:25-26,2:1-2), 1940-07-09 (2:3-10), 1941-01-15 (2
EXTD=:11-14), 1941-07-25 (2:15-18), 1941-10-07 (2:19-22), and 1942-02-
EXTD=02 (2:23-26).\nThe original analogue masters were digitally trans
EXTD=ferred at 24-bit resolution, processed using Sonic Solutions NoNo
EXTD=ise technology, and mastered to 16-bit for CD using Prism SNS Noi
EXTD=se Shaping.\n2CD: Definitive Records DRCD11168 (2000-09, 2001-06)
EXTD=, EAN 8436006491689.
EXTT0=(Charlie Shavers)
EXTT1=(Charlie Shavers)
EXTT2=(John Kirby)
EXTT3=(Charlie Shavers)
EXTT4=(Edvard Grieg/Charlie Shavers)
EXTT5=(Maceo Pinkard/Kenneth Casey)
EXTT6=(Charlie Shavers)
EXTT7=(Fryderyk Chopin/Charlie Shavers)
EXTT8=(Charlie Shavers/John Kirby)
EXTT9=(Clarence Williams/Spencer Williams)
EXTT10=(Fryderyk Chopin/Charlie Shavers)
EXTT11=(Fryderyk Chopin)
EXTT12=(Irving Berlin)
EXTT13=(Harry Williams/Art Hickman)
EXTT14=(Harry Ruskin/Henry Sullivan)
EXTT15=(trad.)
EXTT16=(Thomas Griselle)
EXTT17=(Oscar Hammerstein II/Otto Harbach/Sigmund Romberg)
EXTT18=(Antonin Dvorák)
EXTT19=(Franz Schubert)
EXTT20=(Charlie Shavers/John Kirby)
EXTT21=(Charlie Shavers/John Kirby)
EXTT22=(Charlie Shavers/John Kirby)
EXTT23=(Charlie Shavers/John Kirby)
EXTT24=(Arthur Freed/Nacio Herb Brown)
EXTT25=(Charlie Shavers)
PLAYORDER=
